<svg width="132" height="56" viewBox="0 0 132 56" fill="none" xmlns="http://www.w3.org/2000/svg">
<path fill-rule="evenodd" clip-rule="evenodd" d="M5.02239 5.60394H0V30.982H14.7486V26.1591H5.02239V5.60427V5.60394ZM106.078 30.9461H110.786V30.2561C110.786 21.867 110.786 13.4791 110.787 5.09029C110.787 4.88628 110.803 4.68227 110.811 4.47925H106.079L106.078 30.9461Z" fill="white"/>
<path d="M57.2486 13.4468V12.8825H52.6472V14.9739C52.5475 14.9098 52.4984 14.8923 52.4685 14.8574C50.3474 12.4011 47.6218 11.8917 44.6244 12.6166C40.531 13.6057 37.8403 17.149 37.7455 21.4707C37.6238 27.0284 42.0682 31.2685 47.6317 30.8671C49.4825 30.7328 51.0622 29.9744 52.2937 28.5664C52.3868 28.4594 52.4049 28.29 52.4579 28.1491L52.6462 28.3341C52.6462 29.0484 52.6807 29.7648 52.6389 30.4775C52.5534 31.9362 51.9992 33.1573 50.6742 33.921C48.2241 35.3326 44.7866 34.5482 43.2069 32.2277C43.1701 32.1734 43.1171 32.1306 43.0516 32.0606C41.7378 32.8082 40.4333 33.5515 39.0892 34.3169C39.833 35.6808 40.8394 36.7114 42.1492 37.4165C44.8551 38.8729 47.7261 39.0769 50.6762 38.3777C52.8709 37.8584 54.6945 36.7459 55.953 34.8364C56.9462 33.329 57.2542 31.64 57.2513 29.8664C57.2427 24.3933 57.2483 18.9196 57.2483 13.4468H57.2486ZM47.4974 26.5848C44.5605 26.5713 42.4299 24.4766 42.4378 21.6115C42.4461 18.7613 44.601 16.6787 47.5432 16.6781C50.4794 16.6778 52.6514 18.7692 52.661 21.6073C52.6705 24.5036 50.4968 26.599 47.4974 26.5848ZM89.8651 13.3244C89.1828 13.7147 88.6046 14.2833 87.9454 14.7953V5.61475H83.2739V30.9408H87.9471V29.0264C88.6198 29.5463 89.2019 30.1162 89.8875 30.5058C92.9241 32.2303 97.0322 31.6562 99.6535 29.1929C103.566 25.5174 103.807 19.12 100.183 15.149C97.5456 12.2593 93.1288 11.458 89.8647 13.3244H89.8651ZM92.9902 27.0149C90.0346 27.0231 87.9556 24.9238 87.9484 21.9225C87.9405 18.9318 90.0253 16.7965 92.9632 16.787C95.8988 16.7771 98.0294 18.9071 98.0468 21.8705C98.0653 24.8741 95.9692 27.0063 92.9902 27.0149ZM25.6764 12.3396C20.2739 12.3264 16.0404 16.5172 16.0315 21.887C16.0226 27.2571 20.2469 31.4831 25.6294 31.4916C31.0441 31.4989 35.3122 27.2752 35.3131 21.908C35.3145 16.5567 31.0799 12.3524 25.6764 12.3392V12.3396ZM25.8206 26.903C22.909 26.9695 20.8041 24.9346 20.7314 21.9827C20.6613 19.143 22.7139 16.9877 25.5701 16.9009C28.3846 16.8153 30.5438 18.9271 30.6162 21.8356C30.6867 24.6533 28.6179 26.8382 25.8206 26.903ZM70.2455 12.3396C64.8416 12.3178 60.6002 16.5007 60.5824 21.8689C60.565 27.239 64.785 31.4775 70.1625 31.4916C75.5815 31.5048 79.8532 27.2929 79.8644 21.9261C79.8752 16.5751 75.6473 12.3609 70.2455 12.3392V12.3396ZM70.2099 26.9066C67.3737 26.9083 65.2961 24.8093 65.2797 21.9241C65.2632 19.0667 67.351 16.9259 70.18 16.8989C73.0184 16.8719 75.1556 19.012 75.1685 21.8939C75.1816 24.7767 73.0764 26.905 70.2099 26.9066Z" fill="white"/>
<path fill-rule="evenodd" clip-rule="evenodd" d="M127.485 12.8325C127.093 12.8252 126.963 12.9812 126.854 13.3158C126.078 15.6952 125.284 18.0686 124.495 20.4437C124.004 21.9218 123.511 23.3993 122.982 24.9886C122.871 24.7319 122.8 24.5842 122.741 24.4318C121.296 20.7191 119.855 17.0038 118.399 13.2948C118.331 13.1204 118.14 12.867 118.003 12.8647C116.395 12.8348 114.788 12.8456 113.102 12.8456C113.203 13.0944 113.275 13.2793 113.353 13.4619C115.688 18.9465 118.025 24.4308 120.355 29.9174C120.437 30.1106 120.545 30.3633 120.486 30.5344C119.912 32.1859 118.959 33.4712 117.086 33.7815C116.67 33.8506 116.245 33.8736 115.801 33.92V38.2306C118.061 38.3536 120.102 37.8995 121.855 36.4767C123.471 35.1648 124.488 33.4343 125.195 31.5278C127.456 25.4288 129.68 19.3167 131.916 13.2089C131.953 13.1066 131.966 12.996 132 12.8436C130.463 12.8436 128.974 12.8598 127.485 12.8325H127.485Z" fill="white"/>
<path d="M67.9523 37.3369L72.4333 39.0045C68.5947 49.1455 58.8149 56 47.7364 56C36.5713 56 26.7306 49.0373 22.9558 38.7804L27.452 37.1536C30.5435 45.5543 38.5999 51.2544 47.7364 51.2544C56.8021 51.2544 64.8084 45.6428 67.9523 37.3369ZM18.4313 8.07705L14.8889 4.72106C20.66 -1.57368 30.092 -1.57368 35.8631 4.72106L32.3207 8.07705C28.4646 3.87079 22.2874 3.87079 18.4313 8.07705ZM63.0685 8.07705L59.5261 4.72106C65.2971 -1.57368 74.7292 -1.57368 80.5003 4.72106L76.9578 8.07705C73.1018 3.87079 66.9249 3.87079 63.0685 8.07705Z" fill="white"/>
</svg>
